<svg width="1440" height="86" viewBox="0 0 1440 86" fill="none" xmlns="http://www.w3.org/2000/svg">
<path d="M1564.15 -25.0555C1499.9 -25.0004 1430.99 -26.0716 1367.65 -23.2819C1268.14 -18.8985 1174.07 -8.69177 1075.3 -3.46361C1038.49 -1.51575 1003.82 -0.308135 968.075 -3.92518C939.072 -6.87745 914.353 -11.9431 890.718 -17.0058C848.883 -25.9555 803.925 -37.8516 745.987 -38.8531C708.961 -39.4947 671.73 -34.5742 639.752 -30.4085C604.276 -25.7871 570.167 -20.5212 534.702 -15.8939C502.109 -11.644 463.362 -6.4304 425.527 -7.519C392.091 -8.47986 362.016 -13.8764 336.512 -19.0726C286.733 -29.2329 232.283 -46.0292 161.74 -44.3281C77.2038 -42.296 8.54218 -26.7131 -76.8947 -25.0439" stroke="url(#paint0_linear_205_1)" stroke-miterlimit="10"/>
<path d="M1564.14 -21.4501C1501.04 -21.3949 1432.86 -22.469 1370.73 -19.6271C1269.47 -14.9969 1174.31 -4.09353 1073.89 1.45976C1037.25 3.49181 1002.32 4.78941 966.935 0.91401C937.966 -2.25888 913.989 -7.75992 891.208 -13.171C851.116 -22.6896 807.856 -35.5728 749.212 -36.6846C711.172 -37.3988 672.858 -32.069 640.379 -27.6624C603.717 -22.6838 568.583 -17.0173 531.921 -12.033C498.873 -7.5364 458.986 -1.91344 420.137 -3.06009C386.347 -4.0587 356.785 -9.79196 331.976 -15.2872C283.736 -25.967 230.949 -43.9681 159.279 -42.1537C74.7423 -40.0143 8.70165 -23.1802 -76.9062 -21.4617" stroke="url(#paint1_linear_205_1)" stroke-miterlimit="10"/>
<path d="M1564.12 -17.9086C1501.9 -17.8621 1434.14 -18.9565 1372.93 -16.1378C1270.81 -11.4351 1175.39 0.0401891 1074.2 5.74443C1038.06 7.77648 1002.48 9.10021 967.596 5.19868C938.388 1.93289 914.741 -3.86424 892.382 -9.50462C852.928 -19.4733 810.945 -32.8731 751.07 -33.953C712.186 -34.6555 673.77 -29.2706 640.835 -24.6637C603.398 -19.4384 567.615 -13.4816 530.19 -8.25056C496.719 -3.57105 456.662 2.1419 417.014 1.00395C382.826 0.0227664 353.766 -5.815 329.264 -11.5454C281.4 -22.7361 231.132 -41.1929 157.786 -39.396C73.0332 -37.3204 8.98692 -19.45 -76.9742 -17.9144" stroke="url(#paint2_linear_205_1)" stroke-miterlimit="10"/>
<path d="M1564.1 -14.4251C1502.12 -14.3264 1434.58 -15.5572 1373.63 -12.6833C1272.2 -7.89059 1178 3.9272 1077.6 9.76498C1041.57 11.858 1006.01 13.112 971.152 9.25697C941.522 5.97376 917.408 0.106968 894.718 -5.60308C854.535 -15.7169 812.107 -29.288 751.445 -30.5537C712.288 -31.3694 674.1 -26.0513 641.017 -21.3718C603.524 -16.0652 567.808 -9.9923 530.326 -4.68286C496.696 0.0837396 456.844 5.71831 416.9 4.49908C382.484 3.44823 353.595 -2.40116 329.047 -8.19539C280.99 -19.5429 231.679 -37.7558 157.752 -36.0634C72.7594 -34.1243 9.37408 -15.7662 -76.9403 -14.4251" stroke="url(#paint3_linear_205_1)" stroke-miterlimit="10"/>
<path d="M1564.09 -11.0199C1501.85 -10.8399 1434.51 -12.393 1373.34 -9.31881C1273.72 -4.31127 1181.64 7.70102 1083.07 13.7449C1046.61 15.9831 1011.98 17.1471 976.622 13.2659C946.456 9.9595 921.487 4.15365 897.966 -1.50704C856.45 -11.5105 812.233 -25.2181 751.571 -26.9454C712.653 -28.0543 674.328 -22.7216 641.53 -18.045C604.492 -12.7646 569.312 -6.68586 532.286 -1.39964C498.725 3.39309 458.872 8.98411 418.986 7.53556C384.672 6.2902 355.361 0.356628 330.472 -5.37374C282.164 -16.4919 231.428 -34.3623 158.39 -32.7193C73.1926 -30.8004 9.60208 -12.3378 -76.9175 -11.0199" stroke="url(#paint4_linear_205_1)" stroke-miterlimit="10"/>
<path d="M1564.07 -7.67287C1501.47 -7.45806 1434.31 -9.44366 1372.77 -6.18948C1275.18 -1.02809 1185.5 11.141 1089.01 17.3242C1052.24 19.6872 1018.42 20.7409 982.662 16.9091C952.029 13.6259 926.057 7.97097 901.658 2.35381C858.752 -7.51612 812.495 -21.1744 751.89 -23.3196C713.325 -24.6869 675.296 -19.4645 642.795 -14.8083C606.384 -9.583 571.945 -3.54201 535.557 1.68034C502.098 6.48178 462.622 11.9131 422.917 10.2585C388.569 8.82443 358.734 2.86473 333.287 -2.80468C284.34 -13.6906 231.941 -31.114 159.461 -29.4941C73.8876 -27.584 9.9439 -9.00241 -76.9517 -7.69029" stroke="url(#paint5_linear_205_1)" stroke-miterlimit="10"/>
<path d="M1564.05 -4.38969C1501.02 -4.18358 1433.89 -6.69461 1371.92 -3.27497C1276.56 1.98222 1189.49 14.2761 1095.27 20.5667C1058.34 23.0313 1025.17 23.9573 989.112 20.2358C957.932 17.0194 930.992 11.527 905.647 6.01148C860.951 -3.68138 813.076 -17.1422 752.3 -19.6823C714.191 -21.2731 676.835 -16.2772 644.652 -11.6528C609.039 -6.53205 575.478 -0.543315 539.887 4.58324C506.554 9.38758 467.841 14.549 428.376 12.7114C393.869 11.1003 363.418 5.16383 337.207 -0.427201C287.281 -11.0722 233.012 -27.9614 160.92 -26.3503C74.8221 -24.4256 10.3884 -5.71922 -77.0315 -4.3984" stroke="url(#paint6_linear_205_1)" stroke-miterlimit="10"/>
<path d="M1564.04 -1.17032C1500.49 -1.00775 1433.39 -4.12259 1370.86 -0.5549C1277.89 4.74874 1193.59 17.1529 1101.8 23.4784C1064.9 26.0272 1032.18 26.8197 995.938 23.2607C964.2 20.1429 936.314 14.8422 909.932 9.49502C863.208 0.0227806 813.874 -13.1158 752.87 -16.0217C679.251 -19.5313 604.857 -1.26612 545.198 7.34395C511.99 12.1396 474.325 16.9439 435.202 14.9322C400.421 13.1411 369.333 7.26267 342.221 1.75582C291.03 -8.63954 234.733 -24.9249 162.823 -23.3051C76.0872 -21.3543 11.0379 -2.51147 -77.0087 -1.17032" stroke="url(#paint7_linear_205_1)" stroke-miterlimit="10"/>
<path d="M1564.01 1.98228C1499.91 2.07227 1432.8 -1.71024 1369.62 1.98228C1279.14 7.28882 1197.75 19.7511 1108.51 26.0968C1071.73 28.7095 1039.33 29.3597 1002.99 26.0069C970.673 23.0198 941.818 17.9542 914.399 12.7753C865.646 3.57308 814.842 -9.1272 753.531 -12.393C681.029 -16.2481 609.837 1.48878 551.284 9.95951C518.907 14.6361 481.163 19.3505 443.111 16.941C407.783 14.7058 376.66 9.28603 348.01 3.77048C295.349 -6.36072 236.887 -21.9871 164.977 -20.3499C77.5001 -18.3614 11.7558 0.623712 -77.0316 2.0026" stroke="url(#paint8_linear_205_1)" stroke-miterlimit="10"/>
<path d="M1563.99 5.07385C1499.28 5.07385 1432.1 0.5656 1368.22 4.39455C1280.32 9.66336 1201.91 22.1779 1115.3 28.4888C964.873 39.459 886.399 -1.03971 754.26 -8.79052C683.034 -12.9736 615.444 4.12459 557.95 12.424C525.722 17.0687 489.437 21.2983 451.864 18.7524C416.091 16.3285 384.239 11.0277 354.438 5.61669C300.135 -4.25324 239.405 -19.1685 167.347 -17.5051C79.0615 -15.473 12.5422 3.66012 -77.0657 5.07385" stroke="url(#paint9_linear_205_1)" stroke-miterlimit="10"/>
<path d="M1563.97 8.09868C1498.63 7.97676 1431.34 2.72828 1366.69 6.67045C1281.41 11.8696 1206 24.4131 1122.09 30.6689C974.776 41.6477 885.054 3.09115 755.047 -5.21411C685.052 -9.69042 621.518 6.65012 565.073 14.7899C532.981 19.4172 498.28 23.0894 461.243 20.4274C424.992 17.8148 392.33 12.6476 361.333 7.34973C305.286 -2.22991 242.243 -16.4281 169.877 -14.727C80.7254 -12.634 13.3742 6.63851 -77.0997 8.09868" stroke="url(#paint10_linear_205_1)" stroke-miterlimit="10"/>
<path d="M1563.95 11.0597C1497.96 10.8129 1430.53 4.7981 1365.07 8.83896C1282.4 13.9423 1210.08 26.5003 1128.77 32.6719C984.576 43.6189 883.755 7.16978 755.856 -1.68994C687.114 -6.45073 627.9 9.08571 572.446 17.0658C540.469 21.667 507.488 24.7499 471.021 22.0008C434.268 19.2169 400.763 14.1629 368.535 8.99571C310.688 -0.293635 245.32 -13.7516 172.59 -12.0127C82.5602 -9.85586 14.3202 9.56179 -77.0541 11.0713" stroke="url(#paint11_linear_205_1)" stroke-miterlimit="10"/>
<path d="M1563.92 13.9568C1497.3 13.5823 1429.68 6.79818 1363.35 10.9232C1283.24 15.9105 1213.9 28.4743 1135.21 34.5414C994.081 45.4245 882.478 11.1642 756.676 1.77322C689.177 -3.26626 634.407 11.4429 579.899 19.2691C548.059 23.8412 516.685 26.3174 480.821 23.4697C443.556 20.5087 409.174 15.5824 375.737 10.543C316.079 1.54389 248.408 -11.1709 175.222 -9.38851C84.2468 -7.17068 15.1634 12.3834 -77.1226 13.9568" stroke="url(#paint12_linear_205_1)" stroke-miterlimit="10"/>
<path d="M1563.9 16.7872C1496.66 16.2879 1428.81 8.75186 1361.72 12.9466C1284.07 17.8032 1217.66 30.3641 1141.48 36.3122C1003.14 47.1111 881.191 15.0802 757.429 5.16386C691.16 -0.148488 640.846 13.7333 587.227 21.4202C555.523 25.9633 525.688 27.8328 490.508 24.9037C452.73 21.7628 417.482 16.9497 382.849 12.0496C321.435 3.35824 251.508 -8.63953 177.821 -6.8194C85.9335 -4.54061 15.9955 15.1731 -77.1908 16.7813" stroke="url(#paint13_linear_205_1)" stroke-miterlimit="10"/>
<path d="M1563.88 19.5565C1495.97 18.9382 1427.95 10.6794 1360.05 14.9322C1284.73 19.6494 1221.13 32.2017 1147.31 38.022C1011.63 48.7222 879.926 18.915 758.238 8.47318C693.075 2.88215 647.262 15.9946 594.384 23.5277C562.782 28.0273 534.509 29.3336 499.921 26.3203C461.653 22.9994 425.55 18.2821 389.789 13.5243C326.688 5.13191 254.608 -6.16046 180.408 -4.29388C87.6543 -1.95703 16.8957 17.899 -77.1453 19.5565" stroke="url(#paint14_linear_205_1)" stroke-miterlimit="10"/>
<path d="M1563.85 22.2592C1495.31 21.5392 1427.1 12.6011 1358.43 16.8975C1285.26 21.4725 1224.29 34.0247 1152.69 39.7086C1083.23 45.2242 1009.34 38.9974 944.462 32.3439C881.897 25.9256 822.421 17.5071 758.921 11.6867C694.579 5.78799 653.541 18.2822 601.062 25.6207C531.374 35.36 460 23.0081 396.216 14.999C331.588 6.894 257.479 -3.72489 182.789 -1.81767C89.2153 0.568533 17.6817 20.5639 -77.1912 22.2621" stroke="url(#paint15_linear_205_1)" stroke-miterlimit="10"/>
<path d="M1563.83 24.9008C1494.65 24.0967 1426.43 14.5403 1356.88 18.8686C1285.66 23.3042 1227.12 35.8477 1157.44 41.4068C1088.62 46.905 1012.78 40.9337 947.596 34.8404C883.766 28.872 823.013 20.9906 759.525 14.79C696.038 8.58931 658.954 20.471 607.148 27.7051C539.044 37.2121 464.696 23.9313 402.017 16.4853C336.033 8.64737 260.044 -1.32707 184.943 0.606275C90.6401 3.03602 18.3999 23.1649 -77.1682 24.9008" stroke="url(#paint16_linear_205_1)" stroke-miterlimit="10"/>
<path d="M1563.81 27.4757C1493.97 26.6048 1425.81 16.5143 1355.45 20.8687C1285.94 25.1679 1229.55 37.7056 1161.72 43.1573C1093.42 48.6293 1015.85 42.9018 950.365 37.3137C885.407 31.7662 823.435 24.358 760.05 17.777C730.146 14.6738 708.231 14.5461 679.319 18.5492C655.82 21.8034 635.945 26.5294 612.481 29.8068C581.176 34.1844 556.241 34.0624 523.454 30.8083C484.058 26.8922 445.675 22.3898 407.02 18.0151C339.931 10.4443 262.289 1.05041 186.846 3.00118C91.8935 5.45705 19.0494 25.7194 -77.2025 27.4757" stroke="url(#paint17_linear_205_1)" stroke-miterlimit="10"/>
<path d="M1563.79 29.9896C1493.3 29.1188 1425.35 18.5463 1354.16 22.9152C1286.03 27.0983 1231.57 39.6825 1165.1 44.9948C1097.16 50.4262 1018.16 44.9368 952.417 39.7696C886.672 34.6024 823.549 27.5773 760.369 20.6103C731.172 17.391 709.827 16.9352 681.166 20.918C658.442 24.0764 639.479 28.7385 616.812 31.9201C585.677 36.2919 561.13 35.8274 528.913 32.4658C489.323 28.335 450.348 23.8412 410.963 19.5885C343.031 12.2557 263.873 3.38435 188.317 5.34092C92.8397 7.81131 19.5055 28.1956 -77.2136 29.9635" stroke="url(#paint18_linear_205_1)" stroke-miterlimit="10"/>
<path d="M1563.76 32.4339C1492.62 31.5862 1425.05 20.648 1353.07 25.0285C1285.95 29.1188 1233.18 41.7987 1167.64 46.9543C1099.79 52.2986 1019.94 47.0588 953.784 42.2603C887.094 37.4269 823.424 30.695 760.506 23.3448C731.901 20.0065 710.796 19.304 682.351 23.2868C660.242 26.3784 642.043 31.0115 620.002 34.1321C589.016 38.5184 564.492 37.8072 532.765 34.3179C493.118 29.9635 453.687 25.4582 413.698 21.2954C345.321 14.1745 264.842 5.76185 189.342 7.7039C93.4893 10.1714 19.8018 30.6718 -77.3275 32.4339" stroke="url(#paint19_linear_205_1)" stroke-miterlimit="10"/>
<path d="M1563.74 34.8172C1491.94 34.0479 1424.96 22.8456 1352.18 27.2377C1285.75 31.2466 1234.13 43.9817 1169.38 49.0764C1101.74 54.3945 1020.84 49.2679 954.513 44.7684C887.139 40.1963 823.184 33.6473 760.562 25.8994C732.425 22.4159 711.206 21.5741 682.909 25.583C661.256 28.6514 643.627 33.2874 622.008 36.3848C591.136 40.8088 566.269 39.9728 534.919 36.3238C495.351 31.7198 455.624 27.1825 415.191 23.0894C346.609 16.1485 265.195 8.11323 190.003 10.0263C93.9221 12.4676 20.0522 33.0784 -77.3051 34.8172" stroke="url(#paint20_linear_205_1)" stroke-miterlimit="10"/>
<path d="M1563.71 37.1395C1491.55 36.4486 1425.03 25.1243 1351.81 29.5571C1285.61 33.5631 1234.29 46.2866 1169.74 51.3522C1102.17 56.653 1020.91 51.4219 954.559 47.0182C886.946 42.5302 823.195 36.0306 760.494 28.2479C732.459 24.7644 710.943 24.0386 682.841 28.0214C661.336 31.0695 643.82 35.6648 622.316 38.7216C591.546 43.0934 566.224 42.2806 535.169 38.5271C495.773 33.7663 456 29.1942 415.396 25.1417C347.144 18.3286 264.67 10.3833 190.06 12.3689C94.1157 14.9177 19.7672 35.1801 -77.3394 37.1308" stroke="url(#paint21_linear_205_1)" stroke-miterlimit="10"/>
<path d="M1563.68 39.4241C1491.36 38.7681 1425.04 27.3683 1351.65 31.8533C1285.55 35.8942 1233.97 48.5103 1169.38 53.5439C1101.81 58.8098 1020.73 53.3494 954.479 48.9167C887.082 44.4055 823.606 37.9175 760.471 30.5035C700.71 23.4871 671.091 34.2773 621.871 41.0062C591.102 45.2126 565.62 44.4462 534.85 40.6782C495.625 35.8739 455.921 31.3134 415.328 27.3073C347.475 20.6132 263.93 12.6302 189.855 14.7841C94.321 17.5651 19.0608 37.0031 -77.3962 39.3806" stroke="url(#paint22_linear_205_1)" stroke-miterlimit="10"/>
<path d="M1563.66 41.6739C1491.12 41.041 1424.96 29.5571 1351.34 34.0798C1285.24 38.1439 1233.46 50.6265 1168.83 55.6137C1101.26 60.839 1020.42 55.1696 954.274 50.7223C887.139 46.2082 823.902 39.7492 760.403 32.7096C701.143 26.1374 670.464 36.736 621.21 43.1602C590.441 47.1836 564.731 46.4405 534.235 42.6667C495.192 37.8362 455.602 33.3106 415.02 29.3742C347.441 22.8165 263.064 14.9176 189.604 17.2167C94.5488 20.1893 18.3656 38.7826 -77.3848 41.5374" stroke="url(#paint23_linear_205_1)" stroke-miterlimit="10"/>
<path d="M1563.64 43.883C1490.85 43.2676 1424.79 31.6907 1350.89 36.2338C1284.88 40.2921 1232.78 52.6324 1168.11 57.5674C1100.54 62.7056 1019.96 56.8939 953.944 52.4437C887.128 47.9442 824.027 41.5346 760.3 34.884C701.462 28.7501 669.735 39.1135 620.356 45.2387C589.506 49.0618 563.603 48.3187 533.335 44.5478C494.508 39.7086 454.997 35.2352 414.484 31.3917C347.076 24.9908 262.186 17.2865 189.228 19.7046C94.6399 22.8368 17.5792 40.5563 -77.4419 43.6508" stroke="url(#paint24_linear_205_1)" stroke-miterlimit="10"/>
<path d="M1563.61 46.0544C1490.52 45.4448 1424.58 33.778 1350.31 38.3239C1284.35 42.359 1231.94 54.56 1167.21 59.3962C1099.67 64.4444 1019.49 58.5021 953.499 54.0665C887.048 49.596 824.141 43.2531 760.152 37.0031C701.758 31.2989 668.915 41.3894 619.307 47.1837C588.355 50.8007 562.247 50.0314 532.172 46.2721C493.649 41.4084 454.119 37.0806 413.755 33.3077C346.404 27.0838 261.275 19.664 188.738 22.1924C94.7655 25.4524 16.7588 42.2777 -77.4304 45.6654" stroke="url(#paint25_linear_205_1)" stroke-miterlimit="10"/>
<path d="M1563.58 48.1852C1490.15 47.5755 1424.24 35.8071 1349.61 40.3473C1283.7 44.3504 1230.94 56.3888 1166.13 61.1264C1098.61 66.0613 1018.78 60.0262 952.906 55.6108C886.809 51.1868 824.073 44.931 759.936 39.0874C701.975 33.8041 667.946 43.5956 618.042 49.0386C586.942 52.4321 560.64 51.6193 530.736 47.8774C492.445 43.0459 453.058 38.7992 412.786 35.1597C345.401 29.1304 260.283 22.114 188.134 24.7092C94.7652 28.0679 15.8697 43.973 -77.4989 47.6249" stroke="url(#paint26_linear_205_1)" stroke-miterlimit="10"/>
<path d="M1563.56 50.2695C1489.76 49.6569 1423.85 37.7869 1348.8 42.2922C1282.94 46.246 1229.8 58.1102 1164.97 62.7346C1097.48 67.5476 1018.07 61.4399 952.257 57.0623C886.649 52.7079 823.936 46.5508 759.731 41.1223C702.18 36.2541 666.898 45.7119 616.652 50.7862C585.381 53.9445 558.874 53.0708 529.095 49.3347C491.066 44.5494 451.857 40.3982 411.715 36.9073C344.216 31.1015 259.36 24.5525 187.519 27.2086C94.7996 30.6341 15.0495 45.6016 -77.4758 49.477" stroke="url(#paint27_linear_205_1)" stroke-miterlimit="10"/>
<path d="M1563.53 52.3131C1489.32 51.6861 1423.36 39.7028 1347.87 44.1849C1282.06 48.069 1228.53 59.7446 1163.63 64.2441C1096.19 68.9178 1017.22 62.7665 951.55 58.4383C886.399 54.142 823.754 48.1242 759.525 43.1138C702.374 38.6578 665.769 47.7584 615.148 52.4437C583.683 55.3467 556.97 54.4061 527.283 50.702C489.506 45.9734 450.46 41.933 410.439 38.6113C342.723 33.029 258.346 27.0345 186.767 29.7371C94.7198 33.2206 14.1491 47.2156 -77.5101 51.2913" stroke="url(#paint28_linear_205_1)" stroke-miterlimit="10"/>
<path d="M1563.51 54.3103C1488.86 53.6659 1422.91 41.5665 1346.86 45.9876C1281.09 49.8137 1227.14 61.2918 1162.17 65.652C1094.79 70.1719 1016.3 64.0003 950.73 59.7272C886.034 55.5092 823.446 49.6424 759.275 45.0558C702.511 40.9917 664.504 49.7208 613.484 54.0026C581.803 56.6588 554.885 55.6166 525.266 51.9706C487.753 47.3136 448.892 43.3968 409.026 40.2544C341.048 34.9275 257.354 29.5513 185.98 32.2858C94.6174 35.7693 13.2832 48.8035 -77.5099 53.0475" stroke="url(#paint29_linear_205_1)" stroke-miterlimit="10"/>
<path d="M1563.49 56.2582C1488.37 55.5905 1422.35 43.375 1345.82 47.7352C1280.02 51.4713 1225.65 62.752 1160.6 66.9612C1093.28 71.3156 1015.35 65.1469 949.773 60.9377C885.555 56.8097 823.013 51.1113 758.91 46.9514C702.533 43.2908 663.046 51.6135 611.603 55.4715C579.694 57.8635 552.583 56.7197 522.987 53.0911C485.746 48.5159 447.079 44.7359 407.384 41.79C339.144 36.736 256.294 32.0217 185.08 34.7882C94.4349 38.292 12.3711 50.3101 -77.5559 54.6993" stroke="url(#paint30_linear_205_1)" stroke-miterlimit="10"/>
<path d="M1563.47 58.148C1487.88 57.46 1421.78 45.1284 1344.58 49.416C1278.88 53.0679 1224.06 64.128 1158.94 68.1776C1091.7 72.3607 1014.3 66.2065 948.872 62.0814C885.122 58.0522 822.626 52.5424 758.659 48.8064C702.636 45.5319 661.587 53.451 609.746 56.8649C577.609 58.9869 550.281 57.7358 520.673 54.1332C483.714 49.6496 445.255 46.0171 405.755 43.2792C337.07 38.5184 255.246 34.5414 184.145 37.3021C94.207 40.7856 11.4937 51.7935 -77.5786 56.3075" stroke="url(#paint31_linear_205_1)" stroke-miterlimit="10"/>
<path d="M1563.44 60.0059C1487.31 59.2772 1421.08 46.8266 1343.34 51.0329C1277.65 54.5832 1222.35 65.4227 1157.18 69.3039C1090 73.3012 1013.18 67.1819 947.847 63.1265C884.575 59.1988 822.124 53.8981 758.329 50.5859C702.636 47.6829 659.969 55.1754 607.74 58.1335C575.364 59.9768 547.831 58.5921 518.178 55.039C481.5 50.6559 443.253 47.1806 403.966 44.661C334.859 40.2137 254.175 37.0002 183.165 39.7638C93.9334 43.2328 10.6276 53.1898 -77.6013 57.8083" stroke="url(#paint32_linear_205_1)" stroke-miterlimit="10"/>
<path d="M1563.42 61.8027C1486.74 61.0364 1420.4 48.4667 1342.01 52.5802C1276.37 56.0259 1220.62 66.6361 1155.35 70.3402C1088.26 74.1489 1012.03 68.0731 946.798 64.1077C883.983 60.2903 821.612 55.2131 758.021 52.3247C702.613 49.8079 658.293 56.8475 605.666 59.3643C573.062 60.9232 545.335 59.402 515.579 55.8808C479.187 51.6067 441.162 48.2992 402.108 46.0109C332.592 41.9003 253.138 39.4851 182.162 42.2371C93.6257 45.6654 9.79567 54.5716 -77.6242 59.283" stroke="url(#paint33_linear_205_1)" stroke-miterlimit="10"/>
<path d="M1563.4 63.5445C1486.18 62.7375 1419.67 50.0488 1340.67 54.0635C1275.03 57.399 1218.81 67.774 1153.46 71.2953C1086.46 74.9036 1010.83 68.8888 945.647 65.0163C883.276 61.3092 820.996 56.4759 757.611 54.0084C702.442 51.8631 656.436 58.4441 603.432 60.4964C570.589 61.7708 542.668 60.1045 512.799 56.6355C476.689 52.472 438.888 49.3353 400.079 47.2823C330.096 43.5288 251.998 41.938 181.046 44.6697C93.2953 48.0545 8.96378 55.8866 -77.6469 60.6764" stroke="url(#paint34_linear_205_1)" stroke-miterlimit="10"/>
<path d="M1563.38 65.2311C1485.6 64.3806 1418.92 51.5874 1339.27 55.4802C1273.63 58.6995 1216.94 68.8395 1151.51 72.1691C1084.6 75.5655 1009.59 69.6261 944.485 65.8523C882.535 62.2614 820.369 57.6864 757.258 55.637C702.283 53.8517 654.601 59.9652 601.256 61.5531C568.207 62.5372 540.07 60.72 510.087 57.2945C474.258 53.2494 436.685 50.2923 398.142 48.4842C327.714 45.1081 250.995 44.3562 180.043 47.0675C92.9308 50.3943 8.26874 57.1436 -77.5898 62.0031" stroke="url(#paint35_linear_205_1)" stroke-miterlimit="10"/>
<path d="M1563.35 66.8567C1485 65.9626 1418.13 53.0388 1337.85 56.83C1272.22 59.9332 1215.03 69.8293 1149.51 72.9528C1082.72 76.1461 1008.34 70.2735 943.243 66.6042C881.704 63.1207 819.674 58.8272 756.825 57.1929C701.952 55.7646 652.641 61.4021 598.885 62.5226C565.597 63.2164 537.346 61.2396 507.078 57.8606C471.526 53.9359 434.182 51.1623 395.92 49.6046C235.234 42.8437 77.7739 54.2493 -77.7492 63.2484" stroke="url(#paint36_linear_205_1)" stroke-miterlimit="10"/>
<path d="M1563.33 68.4301C1484.4 67.4867 1417.33 54.4497 1336.39 58.1219C1270.76 61.1003 1213.08 70.7496 1147.48 73.6902C1080.81 76.6802 1007.05 70.8802 942.092 67.3183C880.906 63.9538 819.059 59.9391 756.494 58.7286C701.633 57.6574 650.772 62.7927 596.617 63.4603C563.136 63.8667 534.645 61.7186 504.206 58.3889C469.06 54.5193 431.738 52.0518 393.846 50.6875C237.251 45.0471 73.9219 55.5179 -77.7152 64.456" stroke="url(#paint37_linear_205_1)" stroke-miterlimit="10"/>
<path d="M1563.31 69.9396C1483.8 68.9468 1416.52 55.7966 1334.92 59.3469C1269.27 62.2121 1211.12 71.603 1145.44 74.3463C1078.88 77.1244 1005.76 71.4027 940.872 67.9598C880.017 64.7231 818.386 60.9928 756.106 60.1771C701.143 59.4572 648.846 64.1077 594.281 64.3022C560.606 64.4212 531.933 62.1047 501.254 58.8156C466.337 55.0738 429.265 52.8182 391.692 51.6977C320.113 49.564 247.531 51.3813 176.544 53.991C91.3693 57.1232 6.06914 60.5603 -77.7381 65.6027" stroke="url(#paint38_linear_205_1)" stroke-miterlimit="10"/>
<path d="M1563.28 71.3882C1483.88 70.3635 1416.7 57.19 1335.17 60.4355C1269.79 63.0481 1211.52 72.0733 1146.36 74.8107C1080.49 77.5772 1008.84 72.0878 944.519 68.7727C882.342 65.5794 819.355 62.0118 755.708 61.5647C699.206 61.167 644.151 65.562 587.774 65.0482C553.745 64.7376 525.38 61.9043 494.189 58.7576C461.79 55.4889 427.578 53.6165 392.98 52.7311C319.338 50.8471 246.3 53.6252 173.535 56.2466C89.5459 59.2714 4.80411 61.5995 -77.7952 66.6564" stroke="url(#paint39_linear_205_1)" stroke-miterlimit="10"/>
<path d="M1563.27 72.7729C1483.32 71.6988 1415.86 58.4151 1333.73 61.5357C1268.34 64.0206 1209.6 72.8077 1144.34 75.3449C1078.61 77.8879 1007.53 72.4768 943.3 69.2691C881.419 66.1746 818.671 62.8827 755.354 62.8827C698.522 62.8827 642.248 66.6942 585.404 65.7217C551.329 65.1411 522.725 62.1453 491.294 59.0653C459.112 55.9127 425.128 54.2378 390.826 53.5759C316.945 52.1506 245.172 55.8169 172.419 58.3657C88.976 61.2889 4.24577 62.5343 -77.7723 67.6551" stroke="url(#paint40_linear_205_1)" stroke-miterlimit="10"/>
<path d="M1563.25 74.0908C1482.69 72.9674 1415.1 59.5762 1332.27 62.5749C1266.86 64.9437 1207.67 73.4841 1142.31 75.8239C1076.71 78.1781 1006.19 72.8048 942 69.7016C880.461 66.7203 817.953 63.7245 754.967 64.1483C697.724 64.5344 640.344 67.7741 583.022 66.3487C548.902 65.4982 520.07 62.3427 488.434 59.3295C456.525 56.2901 422.701 54.8125 388.718 54.3742C314.643 53.4133 244.055 57.9506 171.325 60.4297C88.4063 63.2571 3.80126 63.4139 -77.7382 68.5985" stroke="url(#paint41_linear_205_1)" stroke-miterlimit="10"/>
<path d="M1563.23 75.342C1482.11 74.1808 1414.23 60.6764 1330.83 63.5503C1265.4 65.8059 1205.75 74.114 1140.29 76.2448C1074.83 78.3755 1004.88 73.0748 940.861 70.079C879.47 67.2051 817.258 64.4909 754.614 65.3414C696.869 66.1252 638.51 68.7843 580.708 66.9119C546.52 65.8059 517.483 62.4791 485.551 59.5356C453.619 56.592 420.228 55.3263 386.564 55.1057C312.489 54.6151 242.835 60.0029 170.185 62.4124C87.7453 65.1469 3.20874 64.218 -77.7837 69.4781" stroke="url(#paint42_linear_205_1)" stroke-miterlimit="10"/>
<path d="M1563.22 76.5264C1481.54 75.3071 1413.42 61.7215 1329.42 64.4618C1263.96 66.6071 1203.88 74.6627 1138.33 76.6135C1073.06 78.5555 1003.54 73.2896 939.63 70.3954C878.421 67.626 816.552 65.1963 754.215 66.4648C695.901 67.6521 636.675 69.7335 578.361 67.4228C544.275 66.07 514.896 62.5691 482.736 59.6923C451.169 56.8707 417.778 55.785 384.478 55.7763C310.404 55.7531 241.639 61.9653 169.091 64.3109C87.0391 66.9641 2.70759 64.9524 -77.7834 70.2967" stroke="url(#paint43_linear_205_1)" stroke-miterlimit="10"/>
<path d="M1563.2 77.6382C1480.98 76.3783 1412.66 62.6795 1328.06 65.3153C1262.56 67.3474 1202.05 75.1852 1136.42 76.927C1071.21 78.6688 1002.39 73.4435 938.468 70.6509C877.384 67.9918 815.822 65.8349 753.85 67.5157C694.909 69.1123 634.92 70.616 576.07 67.8757C541.996 66.2936 512.366 62.6156 479.967 59.8056C448.547 57.0826 415.442 56.1914 382.45 56.3888C308.489 56.8272 240.442 63.8348 167.997 66.1252C86.4121 68.703 2.29717 65.6085 -77.8177 71.0602" stroke="url(#paint44_linear_205_1)" stroke-miterlimit="10"/>
<path d="M1563.18 78.6804C1480.45 77.3769 1411.89 63.5852 1326.72 66.1049C1261.2 68.047 1200.23 75.6323 1134.56 77.2086C1069.49 78.7703 1001.23 73.5538 937.339 70.8657C876.37 68.3082 815.116 66.4213 753.497 68.5056C693.895 70.5202 633.165 71.455 573.905 68.2937C539.865 66.4794 509.984 62.6272 477.3 59.8752C446.074 57.2626 413.14 56.5427 380.433 56.9404C306.665 57.8316 239.2 65.5998 166.88 67.8408C85.6828 70.3577 1.81863 66.1891 -77.9088 71.7482" stroke="url(#paint45_linear_205_1)" stroke-miterlimit="10"/>
<path d="M1563.17 79.6499C1479.98 78.3058 1411.17 64.4154 1325.46 66.8335C1259.9 68.6856 1198.58 76.0416 1132.77 77.4437C1067.81 78.8255 1000.05 73.6176 936.268 71.0224C875.379 68.5404 814.432 66.938 753.178 69.4171C692.881 71.8556 631.604 72.2329 571.831 68.6623C537.859 66.6303 507.693 62.6039 474.793 59.9158C443.727 57.3787 410.974 56.8533 378.609 57.4396C305.104 58.7721 238.106 67.2573 165.923 69.4694C85.0104 71.9397 1.48816 66.7029 -77.886 72.3955" stroke="url(#paint46_linear_205_1)" stroke-miterlimit="10"/>
<path d="M1563.16 80.5411C1479.44 79.1651 1410.45 65.1817 1324.26 67.5041C1258.64 69.2691 1196.96 76.4073 1131.07 77.6382C1066.22 78.8487 998.981 73.6409 935.254 71.1269C874.421 68.7262 813.771 67.3909 752.859 70.2561C691.946 73.1212 630.065 72.9529 569.825 68.9875C535.933 66.7551 505.471 62.6011 472.388 59.9246C441.619 57.4309 408.82 57.1174 376.854 57.8925C303.645 59.6343 237.024 68.8046 164.988 70.9876C84.4291 73.4289 1.14608 67.1325 -77.8862 72.979" stroke="url(#paint47_linear_205_1)" stroke-miterlimit="10"/>
<path d="M1563.09 81.3713C1478.92 79.9663 1409.78 65.8901 1323.08 68.1224C1257.48 69.8032 1195.43 76.7267 1129.47 77.7978C1064.76 78.8487 997.955 73.6234 934.297 71.1821C873.498 68.8597 813.133 67.777 752.574 71.0195C690.875 74.3201 628.629 73.6321 567.956 69.2778C534.132 66.8567 503.408 62.5459 470.132 59.9071C439.487 57.4774 406.86 57.338 375.225 58.2699C340.706 59.2888 307.053 61.6228 273.913 64.2122C238.152 67.0019 201.354 71.2576 164.1 72.3839C83.8137 74.8136 0.815651 67.4721 -77.8975 73.4928" stroke="url(#paint48_linear_205_1)" stroke-miterlimit="10"/>
<path d="M1563.09 82.0971C1478.51 80.6688 1409.24 66.5026 1322.04 68.6595C1256.39 70.2851 1194 77.017 1127.96 77.9285C1063.36 78.8313 997.032 73.5741 933.43 71.1937C872.632 68.9236 812.506 68.0963 752.3 71.7046C689.929 75.4436 627.273 74.2563 566.156 69.5245C532.48 66.9119 501.494 62.4704 468.046 59.8694C437.527 57.4977 405.048 57.5151 373.72 58.6066C339.27 59.8026 305.811 62.3398 272.864 65.0947C237.365 68.0615 200.51 72.5378 163.268 73.6728C83.2326 76.1083 0.496552 67.7363 -77.9089 73.9631" stroke="url(#paint49_linear_205_1)" stroke-miterlimit="10"/>
<path d="M1563.09 82.756C1478.12 81.3046 1408.67 67.0541 1321.09 69.1471C1255.39 70.7205 1192.72 77.2492 1126.62 78.0301C1062.1 78.7936 996.223 73.4754 932.667 71.156C871.857 68.941 811.948 68.3459 752.095 72.3171C689.006 76.4886 626.065 74.834 564.515 69.7393C530.964 66.9641 499.75 62.3862 466.132 59.8143C435.738 57.4919 403.453 57.6545 372.353 58.8882C337.982 60.2526 304.694 62.9813 271.918 65.8872C236.659 69.0136 199.758 73.6873 162.516 74.8398C82.7425 77.3073 0.200215 67.9163 -77.9431 74.3666" stroke="url(#paint50_linear_205_1)" stroke-miterlimit="10"/>
<path d="M1563.09 83.3337C1477.77 81.8823 1408.21 67.5331 1320.25 69.5768C1254.47 71.1066 1191.47 77.4553 1125.31 78.1085C1060.86 78.7471 995.391 73.3506 931.903 71.0776C871.071 68.9033 811.332 68.5288 751.844 72.8397C688.106 77.4582 625.005 75.3681 563.022 69.9368C529.585 67.0019 498.166 62.305 464.411 59.7562C434.12 57.4716 401.948 57.7619 371.145 59.1263C336.819 60.6474 303.714 63.5503 271.087 66.5955C236.021 69.8729 199.097 74.7063 161.809 75.8848C82.1955 78.4046 -0.141673 68.0179 -77.9431 74.7237" stroke="url(#paint51_linear_205_1)" stroke-miterlimit="10"/>
<path d="M1563.09 83.8272C1477.44 82.3757 1407.81 67.9366 1319.51 69.9483C1253.72 71.4463 1190.44 77.6266 1124.21 78.1781C1059.84 78.7036 994.799 73.2112 931.311 70.9702C870.444 68.822 810.819 68.6478 751.673 73.2925C687.274 78.3523 624.139 75.8674 561.7 70.0993C528.411 67.0222 496.81 62.2179 462.929 59.6865C432.729 57.428 400.718 57.8286 370.13 59.3091C335.851 60.9725 302.893 64.0322 270.403 67.2051C235.496 70.616 198.607 75.5742 161.216 76.7847C81.7736 79.3828 -0.460936 68.0179 -77.9547 75.0197" stroke="url(#paint52_linear_205_1)" stroke-miterlimit="10"/>
<path d="M1563.09 84.2394C1477.86 82.788 1408.46 68.3488 1320.67 70.2212C1251.3 71.6988 1184.25 78.3726 1114.25 78.2362C1054.41 78.1201 994.366 73.1125 935.254 70.9586C872.45 68.6711 812.335 68.7349 751.514 73.6322C684.071 79.049 620.88 76.2012 555.876 69.7597C526.736 66.8742 498.975 62.9378 469.619 60.2352C438.553 57.3758 404.444 57.6545 372.478 59.2424C336.204 61.0422 301.48 64.4676 267.269 67.9511C232.784 71.4753 196.123 76.4364 158.937 77.5976C80.3037 80.0389 -1.47502 67.986 -77.9431 75.2549" stroke="url(#paint53_linear_205_1)" stroke-miterlimit="10"/>
<path d="M1563.09 84.5645C1477.62 83.1334 1408.22 68.5985 1320.19 70.4738C1250.8 71.9543 1183.44 78.4713 1113.47 78.2536C1053.67 78.0649 993.933 72.918 934.855 70.7612C872.005 68.4678 811.902 68.6943 751.377 73.9108C683.251 79.7863 620.39 76.6047 554.85 69.8467C525.847 66.8567 498.006 62.8855 468.57 60.18C437.573 57.3177 403.612 57.6545 371.828 59.3323C335.577 61.2454 300.99 64.8189 266.881 68.3953C232.442 72.0065 195.792 77.0228 158.515 78.242C80.03 80.7907 -1.83987 67.835 -77.9547 75.4552" stroke="url(#paint54_linear_205_1)" stroke-miterlimit="10"/>
<path d="M1563.09 84.7968C1477.45 83.3889 1408.1 68.7668 1319.83 70.6712C1250.43 72.1691 1182.91 78.5468 1112.85 78.2594C1053.08 78.0156 993.625 72.7032 934.57 70.5289C871.686 68.2066 811.492 68.5753 751.354 74.1053C682.567 80.4279 620.207 76.9792 554.11 69.9367C525.175 66.8567 497.266 62.8449 467.807 60.1074C436.832 57.2306 403.168 57.5935 371.407 59.3498C298.027 63.4139 232.283 76.1374 158.196 78.7036C79.8477 81.4178 -2.23873 67.5883 -77.9547 75.5916" stroke="url(#paint55_linear_205_1)" stroke-miterlimit="10"/>
<path d="M1563.09 84.9446C1477.31 83.5657 1407.99 68.8566 1319.61 70.8074C1250.2 72.343 1182.46 78.5959 1112.43 78.2621C1052.65 77.9718 993.454 72.4737 934.422 70.2616C871.515 67.9045 811.116 68.3805 751.32 74.2096C681.929 80.9763 620.264 77.3273 553.54 70.0004C524.845 66.8565 496.867 62.6908 467.34 60.0608C435.977 57.2711 403.327 57.4975 371.225 59.3321C297.719 63.5356 232.34 76.2707 157.991 79.0227C79.7453 81.9256 -2.69437 67.2513 -77.9089 75.6785" stroke="url(#paint56_linear_205_1)" stroke-miterlimit="10"/>
<path d="M1563.09 85C1477.22 83.6618 1408.02 68.8656 1319.55 70.8889C1250.14 72.4768 1182.31 78.6252 1112.14 78.2652C1052.35 77.9575 993.386 72.2271 934.365 69.9629C871.458 67.5505 810.74 68.105 751.297 74.2273C681.371 81.4352 620.572 77.6556 553.21 70.05C491.67 63.1062 440.969 55.2015 371.282 59.2714C297.583 63.5764 232.511 76.2041 157.9 79.1767C79.7454 82.2916 -3.12735 66.8248 -78 75.6932" stroke="url(#paint57_linear_205_1)" stroke-miterlimit="10"/>
<defs>
<linearGradient id="paint0_linear_205_1" x1="-1.18e+06" y1="-21560.1" x2="-1.18e+06" y2="-21020.6" gradientUnits="userSpaceOnUse">
<stop stop-color="#2C66B8"/>
<stop offset="1" stop-color="#592CB8"/>
</linearGradient>
<linearGradient id="paint1_linear_205_1" x1="-1.18e+06" y1="-22985.2" x2="-1.18e+06" y2="-22409.9" gradientUnits="userSpaceOnUse">
<stop stop-color="#2C66B8"/>
<stop offset="1" stop-color="#592CB8"/>
</linearGradient>
<linearGradient id="paint2_linear_205_1" x1="-1.18004e+06" y1="-23751.7" x2="-1.18004e+06" y2="-23157.2" gradientUnits="userSpaceOnUse">
<stop stop-color="#2C66B8"/>
<stop offset="1" stop-color="#592CB8"/>
</linearGradient>
<linearGradient id="paint3_linear_205_1" x1="-1.18e+06" y1="-24099.6" x2="-1.18e+06" y2="-23496.2" gradientUnits="userSpaceOnUse">
<stop stop-color="#2C66B8"/>
<stop offset="1" stop-color="#592CB8"/>
</linearGradient>
<linearGradient id="paint4_linear_205_1" x1="-1.17998e+06" y1="-24452.1" x2="-1.17998e+06" y2="-23839.8" gradientUnits="userSpaceOnUse">
<stop stop-color="#2C66B8"/>
<stop offset="1" stop-color="#592CB8"/>
</linearGradient>
<linearGradient id="paint5_linear_205_1" x1="-1.17999e+06" y1="-24656.2" x2="-1.17999e+06" y2="-24038.8" gradientUnits="userSpaceOnUse">
<stop stop-color="#2C66B8"/>
<stop offset="1" stop-color="#592CB8"/>
</linearGradient>
<linearGradient id="paint6_linear_205_1" x1="-1.18003e+06" y1="-24722.7" x2="-1.18003e+06" y2="-24103.5" gradientUnits="userSpaceOnUse">
<stop stop-color="#2C66B8"/>
<stop offset="1" stop-color="#592CB8"/>
</linearGradient>
<linearGradient id="paint7_linear_205_1" x1="-1.18e+06" y1="-24668.6" x2="-1.18e+06" y2="-24050.7" gradientUnits="userSpaceOnUse">
<stop stop-color="#2C66B8"/>
<stop offset="1" stop-color="#592CB8"/>
</linearGradient>
<linearGradient id="paint8_linear_205_1" x1="-1.18e+06" y1="-24505.2" x2="-1.18e+06" y2="-23891.3" gradientUnits="userSpaceOnUse">
<stop stop-color="#2C66B8"/>
<stop offset="1" stop-color="#592CB8"/>
</linearGradient>
<linearGradient id="paint9_linear_205_1" x1="-1.18001e+06" y1="-24116.3" x2="-1.18001e+06" y2="-23512" gradientUnits="userSpaceOnUse">
<stop stop-color="#2C66B8"/>
<stop offset="1" stop-color="#592CB8"/>
</linearGradient>
<linearGradient id="paint10_linear_205_1" x1="-1.18002e+06" y1="-23859.1" x2="-1.18002e+06" y2="-23261.2" gradientUnits="userSpaceOnUse">
<stop stop-color="#2C66B8"/>
<stop offset="1" stop-color="#592CB8"/>
</linearGradient>
<linearGradient id="paint11_linear_205_1" x1="-1.17997e+06" y1="-23546.1" x2="-1.17997e+06" y2="-22956" gradientUnits="userSpaceOnUse">
<stop stop-color="#2C66B8"/>
<stop offset="1" stop-color="#592CB8"/>
</linearGradient>
<linearGradient id="paint12_linear_205_1" x1="-1.18e+06" y1="-23212.8" x2="-1.18e+06" y2="-22631" gradientUnits="userSpaceOnUse">
<stop stop-color="#2C66B8"/>
<stop offset="1" stop-color="#592CB8"/>
</linearGradient>
<linearGradient id="paint13_linear_205_1" x1="-1.18004e+06" y1="-22859.6" x2="-1.18004e+06" y2="-22286.6" gradientUnits="userSpaceOnUse">
<stop stop-color="#2C66B8"/>
<stop offset="1" stop-color="#592CB8"/>
</linearGradient>
<linearGradient id="paint14_linear_205_1" x1="-1.17999e+06" y1="-22501.4" x2="-1.17999e+06" y2="-21937.3" gradientUnits="userSpaceOnUse">
<stop stop-color="#2C66B8"/>
<stop offset="1" stop-color="#592CB8"/>
</linearGradient>
<linearGradient id="paint15_linear_205_1" x1="-1.18e+06" y1="-22031.8" x2="-1.18e+06" y2="-21479.4" gradientUnits="userSpaceOnUse">
<stop stop-color="#2C66B8"/>
<stop offset="1" stop-color="#592CB8"/>
</linearGradient>
<linearGradient id="paint16_linear_205_1" x1="-1.17997e+06" y1="-21698.3" x2="-1.17997e+06" y2="-21154.3" gradientUnits="userSpaceOnUse">
<stop stop-color="#2C66B8"/>
<stop offset="1" stop-color="#592CB8"/>
</linearGradient>
<linearGradient id="paint17_linear_205_1" x1="-1.17998e+06" y1="-21402" x2="-1.17998e+06" y2="-20865.3" gradientUnits="userSpaceOnUse">
<stop stop-color="#2C66B8"/>
<stop offset="1" stop-color="#592CB8"/>
</linearGradient>
<linearGradient id="paint18_linear_205_1" x1="-1.17997e+06" y1="-21171" x2="-1.17997e+06" y2="-20640.1" gradientUnits="userSpaceOnUse">
<stop stop-color="#2C66B8"/>
<stop offset="1" stop-color="#592CB8"/>
</linearGradient>
<linearGradient id="paint19_linear_205_1" x1="-1.18004e+06" y1="-20973.1" x2="-1.18004e+06" y2="-20447" gradientUnits="userSpaceOnUse">
<stop stop-color="#2C66B8"/>
<stop offset="1" stop-color="#592CB8"/>
</linearGradient>
<linearGradient id="paint20_linear_205_1" x1="-1.18001e+06" y1="-20879.5" x2="-1.18001e+06" y2="-20355.8" gradientUnits="userSpaceOnUse">
<stop stop-color="#2C66B8"/>
<stop offset="1" stop-color="#592CB8"/>
</linearGradient>
<linearGradient id="paint21_linear_205_1" x1="-1.18001e+06" y1="-20839.5" x2="-1.18001e+06" y2="-20316.6" gradientUnits="userSpaceOnUse">
<stop stop-color="#2C66B8"/>
<stop offset="1" stop-color="#592CB8"/>
</linearGradient>
<linearGradient id="paint22_linear_205_1" x1="-1.18003e+06" y1="-20713.1" x2="-1.18003e+06" y2="-20193.4" gradientUnits="userSpaceOnUse">
<stop stop-color="#2C66B8"/>
<stop offset="1" stop-color="#592CB8"/>
</linearGradient>
<linearGradient id="paint23_linear_205_1" x1="-1.18001e+06" y1="-20518.6" x2="-1.18001e+06" y2="-20003.7" gradientUnits="userSpaceOnUse">
<stop stop-color="#2C66B8"/>
<stop offset="1" stop-color="#592CB8"/>
</linearGradient>
<linearGradient id="paint24_linear_205_1" x1="-1.18003e+06" y1="-20230.7" x2="-1.18003e+06" y2="-19722.9" gradientUnits="userSpaceOnUse">
<stop stop-color="#2C66B8"/>
<stop offset="1" stop-color="#592CB8"/>
</linearGradient>
<linearGradient id="paint25_linear_205_1" x1="-1.18001e+06" y1="-19883.9" x2="-1.18001e+06" y2="-19384.8" gradientUnits="userSpaceOnUse">
<stop stop-color="#2C66B8"/>
<stop offset="1" stop-color="#592CB8"/>
</linearGradient>
<linearGradient id="paint26_linear_205_1" x1="-1.18003e+06" y1="-19467.5" x2="-1.18003e+06" y2="-18978.8" gradientUnits="userSpaceOnUse">
<stop stop-color="#2C66B8"/>
<stop offset="1" stop-color="#592CB8"/>
</linearGradient>
<linearGradient id="paint27_linear_205_1" x1="-1.18e+06" y1="-19002.1" x2="-1.18e+06" y2="-18524.9" gradientUnits="userSpaceOnUse">
<stop stop-color="#2C66B8"/>
<stop offset="1" stop-color="#592CB8"/>
</linearGradient>
<linearGradient id="paint28_linear_205_1" x1="-1.18001e+06" y1="-18473.8" x2="-1.18001e+06" y2="-18009.9" gradientUnits="userSpaceOnUse">
<stop stop-color="#2C66B8"/>
<stop offset="1" stop-color="#592CB8"/>
</linearGradient>
<linearGradient id="paint29_linear_205_1" x1="-1.17999e+06" y1="-17886.5" x2="-1.17999e+06" y2="-17437.3" gradientUnits="userSpaceOnUse">
<stop stop-color="#2C66B8"/>
<stop offset="1" stop-color="#592CB8"/>
</linearGradient>
<linearGradient id="paint30_linear_205_1" x1="-1.18001e+06" y1="-17280.2" x2="-1.18001e+06" y2="-16846.1" gradientUnits="userSpaceOnUse">
<stop stop-color="#2C66B8"/>
<stop offset="1" stop-color="#592CB8"/>
</linearGradient>
<linearGradient id="paint31_linear_205_1" x1="-1.18001e+06" y1="-16624.2" x2="-1.18001e+06" y2="-16206.5" gradientUnits="userSpaceOnUse">
<stop stop-color="#2C66B8"/>
<stop offset="1" stop-color="#592CB8"/>
</linearGradient>
<linearGradient id="paint32_linear_205_1" x1="-1.18001e+06" y1="-15962.8" x2="-1.18001e+06" y2="-15561.5" gradientUnits="userSpaceOnUse">
<stop stop-color="#2C66B8"/>
<stop offset="1" stop-color="#592CB8"/>
</linearGradient>
<linearGradient id="paint33_linear_205_1" x1="-1.18001e+06" y1="-15266.1" x2="-1.18001e+06" y2="-14882.3" gradientUnits="userSpaceOnUse">
<stop stop-color="#2C66B8"/>
<stop offset="1" stop-color="#592CB8"/>
</linearGradient>
<linearGradient id="paint34_linear_205_1" x1="-1.18001e+06" y1="-14572.4" x2="-1.18001e+06" y2="-14205.9" gradientUnits="userSpaceOnUse">
<stop stop-color="#2C66B8"/>
<stop offset="1" stop-color="#592CB8"/>
</linearGradient>
<linearGradient id="paint35_linear_205_1" x1="-1.17995e+06" y1="-13892.9" x2="-1.17995e+06" y2="-13543.5" gradientUnits="userSpaceOnUse">
<stop stop-color="#2C66B8"/>
<stop offset="1" stop-color="#592CB8"/>
</linearGradient>
<linearGradient id="paint36_linear_205_1" x1="-1.18005e+06" y1="-13164.7" x2="-1.18005e+06" y2="-12833.4" gradientUnits="userSpaceOnUse">
<stop stop-color="#2C66B8"/>
<stop offset="1" stop-color="#592CB8"/>
</linearGradient>
<linearGradient id="paint37_linear_205_1" x1="-1.18001e+06" y1="-12716.6" x2="-1.18001e+06" y2="-12396.5" gradientUnits="userSpaceOnUse">
<stop stop-color="#2C66B8"/>
<stop offset="1" stop-color="#592CB8"/>
</linearGradient>
<linearGradient id="paint38_linear_205_1" x1="-1.18001e+06" y1="-12163.5" x2="-1.18001e+06" y2="-11857.2" gradientUnits="userSpaceOnUse">
<stop stop-color="#2C66B8"/>
<stop offset="1" stop-color="#592CB8"/>
</linearGradient>
<linearGradient id="paint39_linear_205_1" x1="-1.18003e+06" y1="-11723.9" x2="-1.18003e+06" y2="-11428.7" gradientUnits="userSpaceOnUse">
<stop stop-color="#2C66B8"/>
<stop offset="1" stop-color="#592CB8"/>
</linearGradient>
<linearGradient id="paint40_linear_205_1" x1="-1.18001e+06" y1="-11368.6" x2="-1.18001e+06" y2="-11082.2" gradientUnits="userSpaceOnUse">
<stop stop-color="#2C66B8"/>
<stop offset="1" stop-color="#592CB8"/>
</linearGradient>
<linearGradient id="paint41_linear_205_1" x1="-1.17996e+06" y1="-11073.3" x2="-1.17996e+06" y2="-10794.3" gradientUnits="userSpaceOnUse">
<stop stop-color="#2C66B8"/>
<stop offset="1" stop-color="#592CB8"/>
</linearGradient>
<linearGradient id="paint42_linear_205_1" x1="-1.17998e+06" y1="-10822" x2="-1.17998e+06" y2="-10549.3" gradientUnits="userSpaceOnUse">
<stop stop-color="#2C66B8"/>
<stop offset="1" stop-color="#592CB8"/>
</linearGradient>
<linearGradient id="paint43_linear_205_1" x1="-1.17997e+06" y1="-10617.8" x2="-1.17997e+06" y2="-10350.1" gradientUnits="userSpaceOnUse">
<stop stop-color="#2C66B8"/>
<stop offset="1" stop-color="#592CB8"/>
</linearGradient>
<linearGradient id="paint44_linear_205_1" x1="-1.17999e+06" y1="-10626.6" x2="-1.17999e+06" y2="-10358.7" gradientUnits="userSpaceOnUse">
<stop stop-color="#2C66B8"/>
<stop offset="1" stop-color="#592CB8"/>
</linearGradient>
<linearGradient id="paint45_linear_205_1" x1="-1.18004e+06" y1="-10910.5" x2="-1.18004e+06" y2="-10635.5" gradientUnits="userSpaceOnUse">
<stop stop-color="#2C66B8"/>
<stop offset="1" stop-color="#592CB8"/>
</linearGradient>
<linearGradient id="paint46_linear_205_1" x1="-1.18001e+06" y1="-11204.3" x2="-1.18001e+06" y2="-10921.9" gradientUnits="userSpaceOnUse">
<stop stop-color="#2C66B8"/>
<stop offset="1" stop-color="#592CB8"/>
</linearGradient>
<linearGradient id="paint47_linear_205_1" x1="-1.18001e+06" y1="-11502.8" x2="-1.18001e+06" y2="-11213" gradientUnits="userSpaceOnUse">
<stop stop-color="#2C66B8"/>
<stop offset="1" stop-color="#592CB8"/>
</linearGradient>
<linearGradient id="paint48_linear_205_1" x1="-1.17996e+06" y1="-11809.6" x2="-1.17996e+06" y2="-11512.1" gradientUnits="userSpaceOnUse">
<stop stop-color="#2C66B8"/>
<stop offset="1" stop-color="#592CB8"/>
</linearGradient>
<linearGradient id="paint49_linear_205_1" x1="-1.17997e+06" y1="-12093.8" x2="-1.17997e+06" y2="-11789.1" gradientUnits="userSpaceOnUse">
<stop stop-color="#2C66B8"/>
<stop offset="1" stop-color="#592CB8"/>
</linearGradient>
<linearGradient id="paint50_linear_205_1" x1="-1.18e+06" y1="-12371.4" x2="-1.18e+06" y2="-12059.8" gradientUnits="userSpaceOnUse">
<stop stop-color="#2C66B8"/>
<stop offset="1" stop-color="#592CB8"/>
</linearGradient>
<linearGradient id="paint51_linear_205_1" x1="-1.18e+06" y1="-12627.4" x2="-1.18e+06" y2="-12309.3" gradientUnits="userSpaceOnUse">
<stop stop-color="#2C66B8"/>
<stop offset="1" stop-color="#592CB8"/>
</linearGradient>
<linearGradient id="paint52_linear_205_1" x1="-1.18001e+06" y1="-12862.2" x2="-1.18001e+06" y2="-12538.3" gradientUnits="userSpaceOnUse">
<stop stop-color="#2C66B8"/>
<stop offset="1" stop-color="#592CB8"/>
</linearGradient>
<linearGradient id="paint53_linear_205_1" x1="-1.18e+06" y1="-13087.1" x2="-1.18e+06" y2="-12757.5" gradientUnits="userSpaceOnUse">
<stop stop-color="#2C66B8"/>
<stop offset="1" stop-color="#592CB8"/>
</linearGradient>
<linearGradient id="paint54_linear_205_1" x1="-1.18001e+06" y1="-13256.4" x2="-1.18001e+06" y2="-12922.5" gradientUnits="userSpaceOnUse">
<stop stop-color="#2C66B8"/>
<stop offset="1" stop-color="#592CB8"/>
</linearGradient>
<linearGradient id="paint55_linear_205_1" x1="-1.18001e+06" y1="-13403.2" x2="-1.18001e+06" y2="-13065.7" gradientUnits="userSpaceOnUse">
<stop stop-color="#2C66B8"/>
<stop offset="1" stop-color="#592CB8"/>
</linearGradient>
<linearGradient id="paint56_linear_205_1" x1="-1.17997e+06" y1="-13493" x2="-1.17997e+06" y2="-13153.2" gradientUnits="userSpaceOnUse">
<stop stop-color="#2C66B8"/>
<stop offset="1" stop-color="#592CB8"/>
</linearGradient>
<linearGradient id="paint57_linear_205_1" x1="-1.18004e+06" y1="-13418.9" x2="-1.18004e+06" y2="-13081" gradientUnits="userSpaceOnUse">
<stop stop-color="#2C66B8"/>
<stop offset="1" stop-color="#592CB8"/>
</linearGradient>
</defs>
</svg>
