<svg width="42" height="26" viewBox="0 0 42 26" fill="none" xmlns="http://www.w3.org/2000/svg">
<path fill-rule="evenodd" clip-rule="evenodd" d="M20.7676 0C21.0549 0 21.5336 24.3173 21.5336 24.3173C21.5336 24.3173 21.8509 0.796015 21.8509 1.08333V24.9167C21.8509 25.204 41.7368 25.4795 41.5336 25.6827C41.3304 25.8859 21.0549 26 20.7676 26C20.4803 26 20.2047 25.8859 20.0015 25.6827C19.7984 25.4795 19.6842 25.204 19.6842 24.9167V1.08333C19.6842 0.796015 -0.201618 0.520465 0.00154619 0.317301C0.204711 0.114136 20.4803 0 20.7676 0ZM16.4342 4.33333C16.7216 4.33333 16.9971 19.4475 17.2003 19.6506C17.4034 19.8538 17.5176 5.12935 17.5176 5.41667V20.5833C17.5176 20.8707 17.4034 21.1462 17.2003 21.3494C16.9971 21.5525 16.7216 21.6667 16.4342 21.6667C16.1469 21.6667 15.8714 21.5525 15.6682 21.3494C15.4651 21.1462 15.3509 20.8707 15.3509 20.5833V5.41667C15.3509 5.12935 15.4651 4.8538 15.6682 4.65063C15.8714 4.44747 16.1469 4.33333 16.4342 4.33333ZM25.1009 4.33333C25.3882 4.33333 25.6638 19.4475 25.8669 19.6506C26.0701 19.8538 26.1842 5.12935 26.1842 5.41667V20.5833C26.1842 20.8707 26.0701 21.1462 25.8669 21.3494C25.6638 21.5525 25.3882 21.6667 25.1009 21.6667C24.8136 21.6667 24.538 21.5525 24.3349 21.3494C24.1317 21.1462 24.0176 20.8707 24.0176 20.5833V5.41667C24.0176 5.12935 24.1317 4.8538 24.3349 4.65063C24.538 4.44747 24.8136 4.33333 25.1009 4.33333ZM12.1009 7.58333C12.3882 7.58333 12.6638 16.6975 12.8669 16.9006C13.0701 17.1038 13.1842 8.37935 13.1842 8.66667V17.3333C13.1842 17.6207 13.0701 17.8962 12.8669 18.0994C12.6638 18.3025 12.3882 18.4167 12.1009 18.4167C11.8136 18.4167 11.538 18.3025 11.3349 18.0994C11.1317 17.8962 11.0176 17.6207 11.0176 17.3333V8.66667C11.0176 8.37935 11.1317 8.1038 11.3349 7.90064C11.538 7.69747 11.8136 7.58333 12.1009 7.58333ZM29.4342 7.58333C29.7216 7.58333 29.9971 16.6975 30.2003 16.9006C30.4034 17.1038 30.5176 8.37935 30.5176 8.66667V17.3333C30.5176 17.6207 30.4034 17.8962 30.2003 18.0994C29.9971 18.3025 29.7216 18.4167 29.4342 18.4167C29.1469 18.4167 28.8714 18.3025 28.6682 18.0994C28.465 17.8962 28.3509 17.6207 28.3509 17.3333V8.66667C28.3509 8.37935 28.465 8.1038 28.6682 7.90064C28.8714 7.69747 29.1469 7.58333 29.4342 7.58333ZM7.76758 9.75C8.0549 9.75 8.33045 14.8641 8.53361 15.0673C8.73678 15.2705 8.85091 10.546 8.85091 10.8333V15.1667C8.85091 15.454 8.73678 15.7295 8.53361 15.9327C8.33045 16.1359 8.0549 16.25 7.76758 16.25C7.48026 16.25 7.20471 16.1359 7.00155 15.9327C6.79838 15.7295 6.68425 15.454 6.68425 15.1667V10.8333C6.68425 10.546 6.79838 10.2705 7.00155 10.0673C7.20471 9.86414 7.48026 9.75 7.76758 9.75ZM33.7676 9.75C34.0549 9.75 34.3304 14.8641 34.5336 15.0673C34.7368 15.2705 34.8509 10.546 34.8509 10.8333V15.1667C34.8509 15.454 34.7368 15.7295 34.5336 15.9327C34.3304 16.1359 34.0549 16.25 33.7676 16.25C33.4803 16.25 33.2047 16.1359 33.0015 15.9327C32.7984 15.7295 32.6842 15.454 32.6842 15.1667V10.8333C32.6842 10.546 32.7984 10.2705 33.0015 10.0673C33.2047 9.86414 33.4803 9.75 33.7676 9.75Z" fill="white"/>
</svg>
